<?xml version="1.0" encoding="UTF-8"?>
<svg xmlns="http://www.w3.org/2000/svg" version="1.1" viewBox="0 0 453 294">
  <defs>
    <style>
      .cls-1 {
        fill: #45bfb0;
      }

      .cls-2 {
        fill: #023734;
      }

      .cls-3 {
        fill: #3c8e82;
      }

      .cls-4 {
        stroke-width: .71px;
      }

      .cls-4, .cls-5 {
        fill: none;
        stroke: #fff;
        stroke-linecap: round;
        stroke-linejoin: round;
      }

      .cls-5 {
        stroke-width: .55px;
      }

      .cls-6 {
        fill: #fff;
      }

      .cls-7 {
        fill: #45bfb0;
      }
    </style>
  </defs>
  <!-- Generator: Adobe Illustrator 28.7.1, SVG Export Plug-In . SVG Version: 1.2.0 Build 142)  -->
  <g>
    <g id="Layer_1">
      <g>
        <g>
          <path class="cls-1" d="M175.71,163.23c1.46.02,1.89,1.36,3.37,1.28.08,0,.15-.01.23-.02l-.2-.18,1.58-.63c.11-.71-1.62-1.68-3.13-1.97-.55-.11-2.41-.48-3.61.63,6.07-13.6,18.1-29.4,41.48-30.91,1.53-.1,2.99-.13,4.38-.12,0-.07.35-.03.92.02-.3,0-.61-.01-.92-.02-.02.12,1.14.08,1.93.93.63.67.39,1.2.91,1.67l1.34-1.19,2.22.63c.18-.56-.3-1.31-.85-1.68,12.93,1.48,21.05,7.14,38.47,5.97,5.44-.36,10.82-1.49,15.83-3-.25.47-.12.95.08,1.66.35,1.22.59,2.08,1.29,2.28l.63-1.51,1.65-.13h0c-.16-.53-1.61-.1-2.13-.92-.4-.62.07-1.44.04-1.87,15.46-4.95,27.38-13.26,27.36-13.48-.08-.17-11.35,7.51-27.3,11.7.01-.03.02-.06.03-.09.15-.59-.7-1.03-.79-2.27-.08-1.03.46-1.39.26-2.02,0-.03-.02-.06-.03-.08l-1.1.51-1.06-1.05c-.26.42-.16,1.23.04,2.75.19,1.4.28,2.11.67,2.49.09.08.18.15.29.2-4.86,1.17-10.12,2-15.59,2.18-18.02.58-28.21-6.72-42.86-7.59.27-.25.43-.55.73-3.51.23-2.26.19-2.56-.03-2.86l-1.6,1.21-2.18-1.42s-.01.02-.02.03c-.39.82,1.61,1.76,1.46,3.47-.14,1.64-2.09,2.27-1.83,3-.86.01-1.73.05-2.63.11-24.78,1.68-39.32,14.32-47.75,27.14-.28-.38-.68-.86-1.21-1.47-.72-.86-1.1-1.28-1.49-1.4l-.76,2h-2.58s0,.08,0,.12c.21.73,2.27.1,3.24,1.38.85,1.13-.01,2.6.59,2.92-2.33,4.04-4.08,8-5.39,11.53,2.77,3.24,5.78,6.26,9.01,9.05.68-3.36,2.01-8.68,4.47-14.6.3.26,1.14-.87,2.5-.86Z"/>
          <path class="cls-3" d="M224.6,20.67c-51.61,0-93.6,41.99-93.6,93.6s41.99,93.6,93.6,93.6,93.6-41.99,93.6-93.6-41.99-93.6-93.6-93.6ZM309.81,114.27c0,7.58-1.01,14.92-2.87,21.92l-74.54-20.88c.3-.78.48-1.58.55-2.39l74.38-19.02c1.61,6.53,2.48,13.36,2.48,20.38ZM224.43,107.78c2.45,0,4.44,1.99,4.44,4.44s-1.99,4.44-4.44,4.44-4.44-1.99-4.44-4.44,1.99-4.44,4.44-4.44ZM219.52,105.24l-52.51-53.72c9.31-8.55,20.52-15.06,32.92-18.82l21.04,71.72c-.51.23-1,.5-1.45.82ZM229.3,119.24l54.74,56c-9.34,9.11-20.76,16.1-33.47,20.18l-22.19-75.65c.31-.16.62-.33.91-.53ZM232.4,109.11c-.16-.42-.38-.8-.6-1.18l55.86-50.91c8.76,9.64,15.32,21.3,18.95,34.17l-73.9,18.9c-.09-.33-.18-.65-.31-.98ZM285.73,54.99l-55.73,50.79c-.31-.27-.63-.52-.98-.75l20.26-72.32c14.01,4.25,26.5,12.02,36.44,22.28ZM246.6,31.95l-20.16,71.96c-.91-.22-1.85-.3-2.77-.21l-21.05-71.76c7.02-1.87,14.38-2.89,21.98-2.89s14.98,1.02,22.01,2.9ZM164.99,53.45l52.53,53.74c-.36.5-.68,1.02-.93,1.6-.27.62-.46,1.27-.58,1.92l-73.15-20.49c4.16-14.12,11.88-26.72,22.13-36.76ZM139.38,114.27c0-7.38.94-14.54,2.71-21.37l73.88,20.7c.04.24.09.49.16.73l-74.56,19.07c-1.42-6.15-2.19-12.55-2.19-19.13ZM217.27,116.92c.06.1.15.18.21.27l-57.56,52.47c-8.22-9.58-14.36-21-17.69-33.55l75.04-19.19ZM161.76,171.76l57.68-52.58c.48.34.99.64,1.54.88.28.12.56.23.84.32l-21.19,75.64c-15.11-4.44-28.5-12.94-38.87-24.26ZM203.32,196.79l21.3-76.01c.38,0,.75-.04,1.12-.1l22.16,75.54c-7.41,2.11-15.22,3.26-23.3,3.26-7.34,0-14.48-.93-21.28-2.69ZM286.01,173.26l-53.9-55.14,74.07,20.75c-3.95,13.06-10.95,24.79-20.17,34.39Z"/>
          <g>
            <g>
              <path class="cls-1" d="M292.61,127.27c-3.98-6.55-11.11-20.55-6.53-34.32,2.16-6.51,6.2-10.74,23.03-24.5,8.46-6.91,19.4-15.62,32.48-25.42,1.05,6.76,2.29,16.52,2.77,28.33.99,24.29,1.48,36.43-5.14,45-12.57,16.27-42.17,11.66-46.61,10.91Z"/>
              <line class="cls-4" x1="332.24" y1="121.76" x2="309.49" y2="106.66"/>
              <line class="cls-4" x1="297.98" y1="77.26" x2="309.49" y2="106.66"/>
              <path class="cls-4" d="M318.53,93.44"/>
              <path class="cls-4" d="M318.53,93.44"/>
              <path class="cls-4" d="M310.18,69.17"/>
              <path class="cls-4" d="M310.18,69.17"/>
              <path class="cls-4" d="M327.02,78.28"/>
              <line class="cls-4" x1="340.61" y1="44.9" x2="334.05" y2="66.68"/>
              <path class="cls-6" d="M345.92,90.63s.01-.03.01-.04c0-.02-.02-.03-.02-.04,0-.02,0-.05,0-.07l-11.41-23.7,10.04-8.54c.15-.13.17-.35.04-.5-.13-.15-.35-.17-.5-.04l-9.34,7.94,6.22-20.63c.06-.19-.05-.38-.24-.44-.19-.06-.38.05-.44.24l-6.27,20.82-4.97-12.12c-.06-.15-.22-.25-.38-.21-.16.03-.28.16-.3.32l-1.62,23.76-11.43-13.8c-.12-.15-.35-.17-.5-.05-.15.12-.17.35-.05.5l10.92,13.19-17.33-8.65c-.13-.07-.29-.04-.4.06-.11.1-.14.26-.08.39l9.81,23.29-19.47-15.33c-.12-.1-.3-.1-.43,0-.13.1-.18.26-.12.41l11.23,28.68-23.13-8.36c-.19-.07-.39.03-.45.21s.03.39.21.45l23.32,8.43-4.41,4.06-18.47-12.09c-.16-.11-.38-.06-.49.1s-.06.38.1.49l18.39,12.03-11.23,15.13c-.12.16-.08.38.07.49.06.05.14.07.21.07.11,0,.21-.05.28-.14l11.21-15.11,17.11,16.15c.07.06.16.1.24.1.08,0,.16-.03.22-.08.14-.11.17-.3.08-.46l-11.58-19.74,21.47,14.25c.06.04.13.06.19.06.11,0,.23-.06.29-.16.11-.16.06-.38-.1-.49l-21.6-14.34,31.52,2.64s.02,0,.03,0c.15,0,.28-.09.33-.24.05-.15,0-.32-.14-.41l-23.04-15.44,26.08-2.71s.04-.03.07-.04c.04-.01.09-.02.13-.05,0,0,0-.02.02-.03.02-.02.03-.05.04-.07.03-.05.05-.1.05-.16ZM327.14,78.78l17.43,11.59-25.39,2.64,7.97-14.23ZM327.5,78.17l1.3-2.14,5.23-8.62,10.68,22.2-17.21-11.45ZM328.95,55.18l4.71,11.47-6.19,10.21,1.48-21.68ZM326.53,78.43l-7.95,14.21-9.69-23.01,17.64,8.8ZM318.05,93.51l-8.47,12.4-10.79-27.57,19.27,15.17ZM304.97,111.31l4.44-4.09,10.88,18.55-15.32-14.46ZM310.13,106.36l8.5-12.44,22.43,15.03-30.92-2.59Z"/>
              <path class="cls-3" d="M306.88,130.47c-6.3,0-11.69-.73-14.6-1.22-.58-.1-1.08-.44-1.38-.94-5.51-9.07-11.15-22.68-6.72-36,2.31-6.94,6.29-11.22,23.67-25.42,10.57-8.64,21.52-17.21,32.54-25.47.57-.42,1.31-.52,1.96-.25.65.27,1.12.85,1.23,1.55,1.46,9.4,2.4,19.01,2.79,28.56,1.01,24.74,1.51,37.16-5.55,46.31-8.11,10.5-22.51,12.88-33.93,12.88ZM293.85,125.44c7.1,1.09,32.81,3.89,43.78-10.31,6.17-7.99,5.69-19.92,4.72-43.69-.34-8.28-1.09-16.6-2.25-24.79-10.07,7.6-20.05,15.44-29.72,23.34-16.63,13.59-20.4,17.56-22.4,23.58-3.82,11.49.96,23.53,5.87,31.86Z"/>
            </g>
            <g>
              <path class="cls-7" d="M291.52,127.72c-4.31-4.09-12.48-13.09-11.87-24.32.29-5.3,2.45-9.29,12.23-22.99,4.91-6.89,11.32-15.62,19.1-25.61,2.16,4.83,5.07,11.88,7.83,20.61,5.68,17.95,8.52,26.92,5.32,34.67-6.08,14.72-29.14,17.29-32.61,17.64Z"/>
              <line class="cls-5" x1="320.02" y1="115.54" x2="299.95" y2="108.88"/>
              <line class="cls-5" x1="285.36" y1="89.25" x2="299.95" y2="108.88"/>
              <path class="cls-5" d="M304.01,97.16"/>
              <path class="cls-5" d="M304.01,97.16"/>
              <path class="cls-5" d="M292.83,80.72"/>
              <path class="cls-5" d="M292.83,80.72"/>
              <path class="cls-5" d="M307.27,84.1"/>
              <line class="cls-5" x1="310.64" y1="56.39" x2="310.16" y2="74"/>
              <path class="cls-6" d="M325.17,103.99l-20.36-6.85,18.94-7.33s.06-.05.08-.08c.01-.01.04,0,.05-.02,0,0,0-.02,0-.03.01-.02.01-.04.02-.06.01-.04.01-.08,0-.13,0-.01,0-.02,0-.04,0-.01-.02-.02-.03-.03,0-.02,0-.04-.02-.05l-13.35-15.39,5.77-8.42c.09-.12.05-.3-.07-.38-.12-.09-.29-.05-.38.07l-5.36,7.83.45-16.68c0-.15-.12-.28-.27-.28-.16,0-.28.12-.28.27l-.45,16.84-6.18-8.04c-.08-.1-.22-.13-.33-.08-.12.05-.18.18-.16.3l3.62,18.08-11.35-7.98c-.12-.09-.29-.06-.38.07-.09.12-.06.29.07.38l10.85,7.63-14.71-2.94c-.11-.02-.23.03-.29.13-.06.1-.05.22.02.31l12.07,15.41-17.67-7.5c-.11-.05-.25-.01-.32.08-.08.1-.08.23,0,.33l14.23,19.15-18.99-1.54c-.16,0-.28.1-.29.25-.01.15.1.28.25.29l19.14,1.56-2.47,3.93-16.26-5.27c-.14-.04-.3.03-.34.18-.05.14.03.3.18.34l16.19,5.25-5.32,13.59c-.06.14.01.3.15.35.03.01.07.02.1.02.11,0,.21-.07.25-.17l5.31-13.58,16.07,8.59s.09.03.13.03c.08,0,.17-.04.22-.11.08-.11.07-.26-.03-.36l-12.67-12.4,18.95,6.28s.06.01.09.01c.11,0,.22-.07.26-.19.05-.14-.03-.3-.17-.35l-19.06-6.32,24.09-4.44c.12-.02.21-.13.22-.25,0-.12-.07-.24-.19-.28ZM307.46,84.45l15.38,5.12-18.44,7.14,3.06-12.26ZM307.6,83.92l2.68-9.36,12.5,14.42-15.19-5.05ZM309.86,74.06l-2.55,8.89-3.3-16.5,5.85,7.61ZM306.93,84.31l-.08.3-2.98,11.93-11.92-15.22,14.98,2.99ZM303.67,97.31l-3.81,10.99-13.68-18.41,17.48,7.42ZM297.51,113.27l2.48-3.96,11.91,11.65-14.39-7.69ZM300.36,108.53l3.82-11.02,19.82,6.67-23.64,4.35Z"/>
              <path class="cls-3" d="M291.52,129.72c-.51,0-1.01-.2-1.38-.55-6.03-5.72-13.1-14.86-12.49-25.89.33-6.07,2.98-10.58,12.6-24.05,6.14-8.6,12.58-17.24,19.15-25.67.43-.56,1.13-.84,1.83-.76.7.08,1.3.53,1.59,1.17,3.01,6.74,5.68,13.75,7.92,20.82,5.82,18.39,8.74,27.62,5.26,36.05-6.19,14.97-27.79,18.23-34.27,18.87-.07,0-.13.01-.2.01ZM310.49,58.7c-5.82,7.54-11.52,15.22-16.98,22.87-9.6,13.45-11.59,17.14-11.86,21.94-.5,9.11,5.32,16.95,10.58,22.11,5.75-.68,24.89-3.85,30.04-16.31,2.93-7.08.15-15.84-5.37-33.29-1.86-5.86-4.01-11.67-6.41-17.32Z"/>
            </g>
          </g>
        </g>
        <g>
          <path class="cls-2" d="M46.09,272.73l-10.7-18.59h-5.82v18.59h-7.62v-46.47h16.05c3.57,0,6.59.62,9.06,1.87,2.47,1.25,4.32,2.92,5.55,5.02,1.23,2.1,1.84,4.44,1.84,7.02,0,3.03-.88,5.78-2.64,8.26-1.76,2.47-4.47,4.16-8.12,5.05l11.5,19.26h-9.09ZM29.57,248.06h8.42c2.85,0,5-.71,6.45-2.14,1.45-1.43,2.17-3.34,2.17-5.75s-.71-4.29-2.14-5.65c-1.43-1.36-3.59-2.04-6.49-2.04h-8.42v15.58Z"/>
          <path class="cls-2" d="M63.98,244.31c1.54-2.85,3.63-5.07,6.29-6.65s5.58-2.37,8.79-2.37c2.9,0,5.43.57,7.59,1.71s3.89,2.55,5.18,4.25v-5.35h7.69v36.84h-7.69v-5.48c-1.29,1.74-3.05,3.19-5.28,4.35-2.23,1.16-4.77,1.74-7.62,1.74-3.17,0-6.06-.81-8.69-2.44-2.63-1.63-4.71-3.9-6.25-6.82s-2.31-6.23-2.31-9.93.77-6.98,2.31-9.83ZM90.26,247.65c-1.05-1.87-2.42-3.3-4.11-4.28-1.69-.98-3.52-1.47-5.48-1.47s-3.79.48-5.48,1.44c-1.69.96-3.07,2.36-4.11,4.21-1.05,1.85-1.57,4.04-1.57,6.59s.52,4.77,1.57,6.69c1.05,1.92,2.43,3.38,4.15,4.38s3.53,1.5,5.45,1.5,3.79-.49,5.48-1.47c1.69-.98,3.06-2.42,4.11-4.31,1.05-1.89,1.57-4.11,1.57-6.65s-.52-4.75-1.57-6.62Z"/>
          <path class="cls-2" d="M135.93,237.09c2.3,1.2,4.09,2.99,5.38,5.35,1.29,2.36,1.94,5.22,1.94,8.56v21.73h-7.56v-20.6c0-3.3-.83-5.83-2.47-7.59-1.65-1.76-3.9-2.64-6.75-2.64s-5.12.88-6.79,2.64c-1.67,1.76-2.51,4.29-2.51,7.59v20.6h-7.62v-36.84h7.62v4.21c1.25-1.52,2.84-2.7,4.78-3.54,1.94-.85,4-1.27,6.19-1.27,2.9,0,5.49.6,7.79,1.8Z"/>
          <path class="cls-2" d="M152.71,244.31c1.54-2.85,3.63-5.07,6.29-6.65s5.61-2.37,8.86-2.37c2.41,0,4.78.52,7.12,1.57,2.34,1.05,4.2,2.44,5.58,4.18v-17.79h7.69v49.48h-7.69v-5.55c-1.25,1.78-2.98,3.25-5.18,4.41-2.21,1.16-4.74,1.74-7.59,1.74-3.21,0-6.14-.81-8.79-2.44-2.65-1.63-4.75-3.9-6.29-6.82s-2.31-6.23-2.31-9.93.77-6.98,2.31-9.83ZM178.99,247.65c-1.05-1.87-2.42-3.3-4.11-4.28-1.69-.98-3.52-1.47-5.48-1.47s-3.79.48-5.48,1.44c-1.69.96-3.07,2.36-4.11,4.21-1.05,1.85-1.57,4.04-1.57,6.59s.52,4.77,1.57,6.69c1.05,1.92,2.43,3.38,4.15,4.38s3.53,1.5,5.45,1.5,3.79-.49,5.48-1.47c1.69-.98,3.06-2.42,4.11-4.31,1.05-1.89,1.57-4.11,1.57-6.65s-.52-4.75-1.57-6.62Z"/>
          <path class="cls-2" d="M204.84,270.96c-2.81-1.58-5.02-3.81-6.62-6.69s-2.41-6.21-2.41-10,.82-7.06,2.47-9.96c1.65-2.9,3.9-5.13,6.75-6.69,2.85-1.56,6.04-2.34,9.56-2.34s6.71.78,9.56,2.34c2.85,1.56,5.1,3.79,6.75,6.69,1.65,2.9,2.47,6.22,2.47,9.96s-.85,7.07-2.54,9.96c-1.69,2.9-4,5.14-6.92,6.72-2.92,1.58-6.14,2.37-9.66,2.37s-6.62-.79-9.43-2.37ZM219.78,265.31c1.72-.94,3.11-2.34,4.18-4.21,1.07-1.87,1.61-4.15,1.61-6.82s-.51-4.94-1.54-6.79c-1.03-1.85-2.39-3.24-4.08-4.18-1.69-.94-3.52-1.4-5.48-1.4s-3.78.47-5.45,1.4c-1.67.94-3,2.33-3.98,4.18-.98,1.85-1.47,4.11-1.47,6.79,0,3.97,1.01,7.03,3.04,9.19,2.03,2.16,4.58,3.24,7.66,3.24,1.96,0,3.8-.47,5.52-1.4Z"/>
          <path class="cls-2" d="M267.32,237.09c2.3,1.2,4.09,2.99,5.38,5.35,1.29,2.36,1.94,5.22,1.94,8.56v21.73h-7.56v-20.6c0-3.3-.83-5.83-2.47-7.59-1.65-1.76-3.9-2.64-6.75-2.64s-5.12.88-6.79,2.64c-1.67,1.76-2.51,4.29-2.51,7.59v20.6h-7.62v-36.84h7.62v4.21c1.25-1.52,2.84-2.7,4.78-3.54,1.94-.85,4-1.27,6.19-1.27,2.9,0,5.49.6,7.79,1.8Z"/>
          <path class="cls-2" d="M310.72,237.09c2.3,1.2,4.09,2.99,5.38,5.35,1.29,2.36,1.94,5.22,1.94,8.56v21.73h-7.56v-20.6c0-3.3-.83-5.83-2.47-7.59-1.65-1.76-3.9-2.64-6.75-2.64s-5.12.88-6.79,2.64c-1.67,1.76-2.51,4.29-2.51,7.59v20.6h-7.62v-36.84h7.62v4.21c1.25-1.52,2.84-2.7,4.78-3.54,1.94-.85,4-1.27,6.19-1.27,2.9,0,5.49.6,7.79,1.8Z"/>
          <path class="cls-2" d="M361.24,257.15h-28.15c.22,2.94,1.31,5.31,3.28,7.09,1.96,1.78,4.37,2.67,7.22,2.67,4.1,0,7-1.72,8.69-5.15h8.23c-1.12,3.39-3.13,6.16-6.05,8.33-2.92,2.16-6.54,3.24-10.87,3.24-3.52,0-6.68-.79-9.46-2.37-2.79-1.58-4.97-3.81-6.55-6.69-1.58-2.88-2.37-6.21-2.37-10s.77-7.12,2.31-10c1.54-2.88,3.7-5.09,6.49-6.65,2.79-1.56,5.98-2.34,9.6-2.34s6.58.76,9.29,2.27c2.72,1.52,4.84,3.64,6.35,6.39,1.51,2.74,2.27,5.9,2.27,9.46,0,1.38-.09,2.63-.27,3.75ZM353.55,251c-.04-2.81-1.05-5.06-3.01-6.75-1.96-1.69-4.39-2.54-7.29-2.54-2.63,0-4.88.84-6.75,2.51-1.87,1.67-2.99,3.93-3.34,6.79h20.39Z"/>
          <path class="cls-2" d="M402.36,235.89v36.84h-7.62v-4.35c-1.2,1.52-2.78,2.71-4.71,3.58-1.94.87-4,1.3-6.19,1.3-2.9,0-5.5-.6-7.79-1.81-2.3-1.2-4.1-2.99-5.42-5.35-1.32-2.36-1.97-5.22-1.97-8.56v-21.67h7.56v20.53c0,3.3.82,5.83,2.47,7.59,1.65,1.76,3.9,2.64,6.75,2.64s5.12-.88,6.79-2.64c1.67-1.76,2.51-4.29,2.51-7.59v-20.53h7.62Z"/>
          <path class="cls-2" d="M424.46,236.86c1.85-1.05,4.05-1.57,6.59-1.57v7.89h-1.94c-2.99,0-5.25.76-6.79,2.27s-2.31,4.15-2.31,7.89v19.39h-7.62v-36.84h7.62v5.35c1.11-1.87,2.6-3.33,4.45-4.38Z"/>
        </g>
      </g>
    </g>
  </g>
</svg>