<?xml version="1.0" encoding="UTF-8"?>
<svg xmlns="http://www.w3.org/2000/svg" version="1.1" viewBox="0 0 944 181">
  <defs>
    <style>
      .cls-1 {
        fill: #45bfb0;
      }

      .cls-2 {
        fill: #023734;
      }

      .cls-3 {
        fill: #3c8e82;
      }

      .cls-4 {
        stroke-width: .42px;
      }

      .cls-4, .cls-5 {
        fill: none;
        stroke: #fff;
        stroke-linecap: round;
        stroke-linejoin: round;
      }

      .cls-5 {
        stroke-width: .54px;
      }

      .cls-6 {
        fill: #fff;
      }

      .cls-7 {
        fill: #45bfb0;
      }
    </style>
  </defs>
  <!-- Generator: Adobe Illustrator 28.7.1, SVG Export Plug-In . SVG Version: 1.2.0 Build 142)  -->
  <g>
    <g id="Layer_1">
      <g>
        <g>
          <path class="cls-2" d="M241.22,136l-19.13-33.24h-10.4v33.24h-13.63V52.91h28.69c6.38,0,11.78,1.12,16.2,3.35,4.42,2.23,7.73,5.22,9.92,8.97,2.19,3.75,3.29,7.93,3.29,12.55,0,5.42-1.57,10.34-4.72,14.77-3.15,4.42-7.99,7.43-14.53,9.03l20.56,34.43h-16.26ZM211.69,91.88h15.06c5.1,0,8.95-1.27,11.54-3.83,2.59-2.55,3.89-5.98,3.89-10.28s-1.28-7.67-3.83-10.1c-2.55-2.43-6.42-3.65-11.6-3.65h-15.06v27.86Z"/>
          <path class="cls-2" d="M273.2,85.19c2.75-5.1,6.5-9.07,11.24-11.9,4.74-2.83,9.98-4.24,15.72-4.24,5.18,0,9.7,1.02,13.57,3.05,3.87,2.03,6.95,4.56,9.27,7.59v-9.56h13.75v65.88h-13.75v-9.8c-2.31,3.11-5.46,5.7-9.44,7.77-3.99,2.07-8.53,3.11-13.63,3.11-5.66,0-10.84-1.45-15.54-4.36-4.7-2.91-8.43-6.97-11.18-12.19-2.75-5.22-4.12-11.14-4.12-17.75s1.38-12.47,4.12-17.58ZM320.19,91.17c-1.87-3.35-4.32-5.9-7.35-7.65-3.03-1.75-6.3-2.63-9.8-2.63s-6.78.86-9.8,2.57c-3.03,1.71-5.48,4.23-7.35,7.53-1.87,3.31-2.81,7.23-2.81,11.78s.94,8.53,2.81,11.96c1.87,3.43,4.34,6.04,7.41,7.83,3.07,1.79,6.32,2.69,9.74,2.69s6.77-.88,9.8-2.63c3.03-1.75,5.48-4.32,7.35-7.71,1.87-3.39,2.81-7.35,2.81-11.9s-.94-8.49-2.81-11.84Z"/>
          <path class="cls-2" d="M401.84,72.27c4.1,2.15,7.31,5.34,9.62,9.56,2.31,4.23,3.47,9.33,3.47,15.3v38.86h-13.51v-36.82c0-5.9-1.48-10.42-4.42-13.57-2.95-3.15-6.98-4.72-12.08-4.72s-9.15,1.57-12.13,4.72c-2.99,3.15-4.48,7.67-4.48,13.57v36.82h-13.63v-65.88h13.63v7.53c2.23-2.71,5.08-4.82,8.55-6.34,3.47-1.51,7.15-2.27,11.06-2.27,5.18,0,9.82,1.08,13.93,3.23Z"/>
          <path class="cls-2" d="M431.85,85.19c2.75-5.1,6.5-9.07,11.24-11.9,4.74-2.83,10.02-4.24,15.84-4.24,4.3,0,8.55.94,12.73,2.81,4.19,1.87,7.51,4.36,9.98,7.47v-31.8h13.75v88.47h-13.75v-9.92c-2.23,3.19-5.32,5.82-9.27,7.89-3.95,2.07-8.47,3.11-13.57,3.11-5.74,0-10.98-1.45-15.72-4.36-4.74-2.91-8.49-6.97-11.24-12.19-2.75-5.22-4.12-11.14-4.12-17.75s1.38-12.47,4.12-17.58ZM478.84,91.17c-1.87-3.35-4.32-5.9-7.35-7.65-3.03-1.75-6.3-2.63-9.8-2.63s-6.78.86-9.8,2.57c-3.03,1.71-5.48,4.23-7.35,7.53-1.87,3.31-2.81,7.23-2.81,11.78s.94,8.53,2.81,11.96c1.87,3.43,4.34,6.04,7.41,7.83,3.07,1.79,6.32,2.69,9.74,2.69s6.77-.88,9.8-2.63c3.03-1.75,5.48-4.32,7.35-7.71,1.87-3.39,2.81-7.35,2.81-11.9s-.94-8.49-2.81-11.84Z"/>
          <path class="cls-2" d="M525.04,132.83c-5.02-2.83-8.97-6.82-11.84-11.96s-4.3-11.1-4.3-17.87,1.47-12.63,4.42-17.81c2.95-5.18,6.97-9.16,12.07-11.96,5.1-2.79,10.8-4.18,17.1-4.18s11.99,1.4,17.1,4.18c5.1,2.79,9.12,6.78,12.08,11.96,2.95,5.18,4.42,11.12,4.42,17.81s-1.51,12.63-4.54,17.81c-3.03,5.18-7.15,9.19-12.37,12.02-5.22,2.83-10.98,4.24-17.28,4.24s-11.84-1.41-16.86-4.24ZM551.76,122.73c3.07-1.67,5.56-4.18,7.47-7.53,1.91-3.35,2.87-7.41,2.87-12.19s-.92-8.83-2.75-12.14c-1.84-3.31-4.27-5.8-7.29-7.47-3.03-1.67-6.3-2.51-9.8-2.51s-6.75.84-9.74,2.51c-2.99,1.67-5.36,4.17-7.11,7.47-1.75,3.31-2.63,7.35-2.63,12.14,0,7.09,1.81,12.57,5.44,16.44,3.62,3.87,8.19,5.8,13.69,5.8,3.51,0,6.79-.84,9.86-2.51Z"/>
          <path class="cls-2" d="M636.77,72.27c4.1,2.15,7.31,5.34,9.62,9.56,2.31,4.23,3.47,9.33,3.47,15.3v38.86h-13.51v-36.82c0-5.9-1.48-10.42-4.42-13.57-2.95-3.15-6.98-4.72-12.08-4.72s-9.15,1.57-12.14,4.72c-2.99,3.15-4.48,7.67-4.48,13.57v36.82h-13.63v-65.88h13.63v7.53c2.23-2.71,5.08-4.82,8.55-6.34,3.47-1.51,7.15-2.27,11.06-2.27,5.18,0,9.82,1.08,13.93,3.23Z"/>
          <path class="cls-2" d="M714.36,72.27c4.1,2.15,7.31,5.34,9.62,9.56,2.31,4.23,3.47,9.33,3.47,15.3v38.86h-13.51v-36.82c0-5.9-1.48-10.42-4.42-13.57-2.95-3.15-6.98-4.72-12.08-4.72s-9.15,1.57-12.14,4.72c-2.99,3.15-4.48,7.67-4.48,13.57v36.82h-13.63v-65.88h13.63v7.53c2.23-2.71,5.08-4.82,8.55-6.34,3.47-1.51,7.15-2.27,11.06-2.27,5.18,0,9.82,1.08,13.93,3.23Z"/>
          <path class="cls-2" d="M804.68,108.14h-50.33c.4,5.26,2.35,9.49,5.86,12.67,3.51,3.19,7.81,4.78,12.91,4.78,7.33,0,12.51-3.07,15.54-9.21h14.71c-1.99,6.06-5.6,11.02-10.82,14.88-5.22,3.87-11.7,5.8-19.43,5.8-6.3,0-11.94-1.41-16.92-4.24-4.98-2.83-8.89-6.82-11.72-11.96-2.83-5.14-4.24-11.1-4.24-17.87s1.38-12.73,4.12-17.87c2.75-5.14,6.62-9.1,11.6-11.9,4.98-2.79,10.7-4.18,17.16-4.18s11.76,1.36,16.62,4.06c4.86,2.71,8.65,6.52,11.36,11.42,2.71,4.9,4.07,10.54,4.07,16.92,0,2.47-.16,4.7-.48,6.7ZM790.93,97.14c-.08-5.02-1.87-9.04-5.38-12.07-3.51-3.03-7.85-4.54-13.03-4.54-4.7,0-8.73,1.49-12.08,4.48s-5.34,7.04-5.98,12.13h36.46Z"/>
          <path class="cls-2" d="M878.21,70.12v65.88h-13.63v-7.77c-2.15,2.71-4.96,4.84-8.43,6.4-3.47,1.55-7.16,2.33-11.06,2.33-5.18,0-9.82-1.08-13.93-3.23-4.11-2.15-7.33-5.34-9.68-9.56-2.35-4.22-3.53-9.33-3.53-15.3v-38.74h13.51v36.7c0,5.9,1.47,10.42,4.42,13.57,2.95,3.15,6.97,4.72,12.08,4.72s9.15-1.57,12.13-4.72c2.99-3.15,4.48-7.67,4.48-13.57v-36.7h13.63Z"/>
          <path class="cls-2" d="M917.72,71.86c3.31-1.87,7.23-2.81,11.78-2.81v14.11h-3.47c-5.34,0-9.38,1.36-12.13,4.06-2.75,2.71-4.12,7.41-4.12,14.11v34.67h-13.63v-65.88h13.63v9.56c1.99-3.35,4.64-5.96,7.95-7.83Z"/>
        </g>
        <g>
          <path class="cls-1" d="M48.81,128.07c1.12.01,1.45,1.04,2.59.98.06,0,.12,0,.18-.02l-.15-.14,1.21-.48c.08-.55-1.24-1.29-2.4-1.51-.42-.09-1.85-.37-2.77.49,4.65-10.44,13.89-22.55,31.83-23.71,1.18-.07,2.29-.1,3.36-.09,0-.05.27-.02.71.01-.23,0-.47,0-.71-.01-.02.09.87.06,1.48.71.49.51.3.92.7,1.28l1.03-.91,1.7.49c.14-.43-.23-1.01-.65-1.29,9.92,1.14,16.15,5.48,29.52,4.58,4.17-.28,8.3-1.15,12.14-2.3-.19.36-.09.73.06,1.28.27.94.45,1.59.99,1.75l.48-1.15,1.27-.1h0c-.13-.4-1.24-.07-1.64-.7-.31-.48.05-1.1.03-1.44,11.86-3.8,21-10.17,20.99-10.34-.06-.13-8.71,5.76-20.95,8.98,0-.02.02-.05.02-.07.11-.45-.54-.79-.61-1.74-.06-.79.35-1.07.2-1.55,0-.02-.01-.04-.02-.06l-.85.39-.81-.81c-.2.32-.12.95.03,2.11.14,1.08.21,1.62.51,1.91.07.06.14.11.22.15-3.73.9-7.76,1.54-11.96,1.67-13.83.45-21.64-5.15-32.88-5.82.21-.19.33-.42.56-2.69.18-1.74.14-1.97-.02-2.19l-1.23.93-1.67-1.09s0,.02-.01.02c-.3.63,1.23,1.35,1.12,2.66-.11,1.26-1.6,1.74-1.4,2.31-.66.01-1.33.04-2.02.08-19.01,1.29-30.16,10.99-36.64,20.82-.21-.29-.52-.66-.93-1.13-.56-.66-.84-.99-1.14-1.07l-.58,1.53h-1.98s0,.06,0,.09c.16.56,1.74.08,2.49,1.06.65.86,0,1.99.46,2.24-1.78,3.1-3.13,6.14-4.13,8.85,2.13,2.48,4.44,4.8,6.91,6.94.52-2.57,1.54-6.66,3.43-11.2.23.2.87-.67,1.92-.66Z"/>
          <path class="cls-3" d="M86.31,18.69C46.72,18.69,14.51,50.9,14.51,90.5s32.21,71.81,71.81,71.81,71.81-32.21,71.81-71.81S125.91,18.69,86.31,18.69ZM151.69,90.5c0,5.81-.77,11.45-2.2,16.82l-57.19-16.02c.23-.6.37-1.21.42-1.84l57.06-14.6c1.24,5.01,1.9,10.25,1.9,15.64ZM86.18,85.52c1.88,0,3.41,1.53,3.41,3.41s-1.53,3.41-3.41,3.41-3.41-1.53-3.41-3.41,1.53-3.41,3.41-3.41ZM82.42,83.57l-40.29-41.21c7.14-6.56,15.75-11.55,25.26-14.44l16.14,55.02c-.39.17-.77.38-1.11.63ZM89.92,94.32l42,42.97c-7.17,6.99-15.92,12.35-25.68,15.48l-17.02-58.04c.24-.13.48-.26.7-.41ZM92.3,86.55c-.13-.32-.29-.62-.46-.91l42.86-39.06c6.72,7.4,11.75,16.34,14.54,26.22l-56.7,14.5c-.07-.25-.14-.5-.24-.75ZM133.22,45.02l-42.75,38.97c-.24-.21-.48-.4-.75-.57l15.55-55.49c10.75,3.26,20.33,9.22,27.96,17.09ZM103.2,27.34l-15.47,55.21c-.7-.17-1.42-.23-2.13-.16l-16.15-55.05c5.38-1.44,11.03-2.22,16.86-2.22s11.49.78,16.88,2.22ZM40.58,43.84l40.3,41.23c-.28.38-.52.79-.71,1.23-.21.48-.35.97-.44,1.47l-56.12-15.72c3.19-10.83,9.11-20.5,16.97-28.21ZM20.94,90.5c0-5.66.72-11.15,2.08-16.39l56.68,15.88c.03.19.07.37.12.56l-57.2,14.63c-1.09-4.72-1.68-9.63-1.68-14.68ZM80.7,92.54c.05.07.11.14.16.21l-44.16,40.25c-6.31-7.35-11.01-16.11-13.57-25.74l57.57-14.73ZM38.11,134.61l44.26-40.34c.37.26.76.49,1.18.68.21.09.43.17.64.24l-16.26,58.04c-11.59-3.4-21.86-9.93-29.82-18.62ZM69.99,153.82l16.34-58.32c.29,0,.58-.03.86-.08l17,57.95c-5.69,1.62-11.68,2.5-17.87,2.5-5.63,0-11.11-.72-16.33-2.06ZM133.43,135.76l-41.35-42.3,56.83,15.92c-3.03,10.02-8.4,19.02-15.48,26.38Z"/>
          <g>
            <g>
              <path class="cls-1" d="M138.5,100.48c-3.05-5.03-8.52-15.76-5.01-26.33,1.66-4.99,4.75-8.24,17.67-18.8,6.49-5.3,14.88-11.98,24.92-19.5.81,5.18,1.76,12.67,2.12,21.74.76,18.63,1.14,27.95-3.94,34.52-9.64,12.48-32.35,8.95-35.76,8.37Z"/>
              <line class="cls-5" x1="168.9" y1="96.25" x2="151.45" y2="84.67"/>
              <line class="cls-5" x1="142.62" y1="62.11" x2="151.45" y2="84.67"/>
              <path class="cls-5" d="M158.38,74.52"/>
              <path class="cls-5" d="M158.38,74.52"/>
              <path class="cls-5" d="M151.97,55.9"/>
              <path class="cls-5" d="M151.97,55.9"/>
              <path class="cls-5" d="M164.89,62.89"/>
              <line class="cls-5" x1="175.32" y1="37.29" x2="170.29" y2="53.99"/>
              <path class="cls-6" d="M179.39,72.37s.01-.02.01-.03c0-.01-.02-.02-.02-.03,0-.02,0-.04,0-.06l-8.75-18.18,7.7-6.55c.11-.1.13-.27.03-.38-.1-.11-.27-.13-.38-.03l-7.16,6.09,4.77-15.83c.04-.14-.04-.29-.18-.34-.14-.05-.29.04-.34.18l-4.81,15.97-3.82-9.3c-.05-.12-.17-.19-.29-.16-.12.02-.22.12-.23.25l-1.24,18.23-8.77-10.58c-.1-.12-.27-.13-.38-.04-.12.1-.13.27-.04.38l8.38,10.12-13.3-6.63c-.1-.05-.22-.03-.31.04-.08.08-.11.2-.06.3l7.53,17.87-14.94-11.76c-.1-.08-.23-.08-.33,0-.1.07-.14.2-.09.32l8.61,22-17.75-6.42c-.14-.05-.3.02-.35.16s.02.3.16.35l17.89,6.47-3.38,3.11-14.17-9.27c-.13-.08-.29-.05-.38.08s-.05.29.08.38l14.11,9.23-8.62,11.61c-.09.12-.06.29.06.38.05.04.11.05.16.05.08,0,.16-.04.22-.11l8.6-11.6,13.13,12.39c.05.05.12.07.19.07.06,0,.12-.02.17-.06.11-.08.13-.23.06-.35l-8.89-15.15,16.47,10.94s.1.05.15.05c.09,0,.17-.04.23-.12.08-.12.05-.29-.08-.38l-16.57-11,24.18,2.03s.02,0,.02,0c.11,0,.22-.07.26-.18.04-.12,0-.25-.1-.31l-17.68-11.85,20.01-2.08s.03-.02.05-.03c.03-.01.07-.01.1-.04,0,0,0-.02.01-.02.02-.02.02-.03.03-.05.02-.04.03-.08.04-.12ZM164.99,63.28l13.37,8.89-19.48,2.03,6.11-10.92ZM165.26,62.81l.99-1.64,4.01-6.61,8.2,17.03-13.2-8.78ZM166.38,45.17l3.61,8.8-4.75,7.83,1.14-16.63ZM164.52,63.01l-6.1,10.9-7.43-17.65,13.54,6.75ZM158.01,74.58l-6.5,9.51-8.28-21.15,14.78,11.64ZM147.98,88.23l3.4-3.14,8.35,14.23-11.75-11.09ZM151.93,84.44l6.52-9.54,17.21,11.53-23.72-1.99Z"/>
              <path class="cls-3" d="M149.44,102.93c-4.83,0-8.97-.56-11.21-.93-.44-.08-.83-.34-1.06-.72-4.23-6.96-8.55-17.4-5.16-27.62,1.77-5.33,4.82-8.61,18.16-19.5,8.11-6.63,16.51-13.2,24.97-19.54.43-.33,1-.4,1.5-.19.5.2.86.66.94,1.19,1.12,7.21,1.84,14.58,2.14,21.91.77,18.98,1.16,28.51-4.26,35.53-6.22,8.05-17.27,9.88-26.03,9.88ZM139.45,99.07c5.45.83,25.17,2.99,33.59-7.91,4.74-6.13,4.36-15.28,3.62-33.52-.26-6.35-.84-12.74-1.73-19.02-7.72,5.83-15.38,11.85-22.8,17.91-12.76,10.43-15.65,13.47-17.18,18.09-2.93,8.82.73,18.05,4.5,24.44Z"/>
            </g>
            <g>
              <path class="cls-7" d="M137.66,100.82c-3.31-3.14-9.58-10.05-9.1-18.66.22-4.07,1.88-7.13,9.38-17.64,3.77-5.28,8.68-11.98,14.65-19.65,1.66,3.71,3.89,9.11,6.01,15.81,4.36,13.77,6.54,20.65,4.08,26.6-4.67,11.29-22.36,13.27-25.02,13.53Z"/>
              <line class="cls-4" x1="159.52" y1="91.48" x2="144.12" y2="86.37"/>
              <line class="cls-4" x1="132.93" y1="71.31" x2="144.12" y2="86.37"/>
              <path class="cls-4" d="M147.24,77.38"/>
              <path class="cls-4" d="M147.24,77.38"/>
              <path class="cls-4" d="M138.66,64.77"/>
              <path class="cls-4" d="M138.66,64.77"/>
              <path class="cls-4" d="M149.74,67.36"/>
              <line class="cls-4" x1="152.32" y1="46.1" x2="151.96" y2="59.61"/>
              <path class="cls-6" d="M163.48,82.62l-15.62-5.26,14.53-5.62s.04-.04.06-.06c.01,0,.03,0,.04-.02,0,0,0-.01,0-.02,0-.02,0-.03.01-.05,0-.03.01-.06,0-.1,0,0,0-.02,0-.03,0-.01-.02-.01-.02-.02,0-.01,0-.03-.02-.04l-10.24-11.81,4.42-6.46c.07-.1.04-.23-.05-.29-.09-.07-.23-.04-.29.05l-4.11,6.01.34-12.8c0-.12-.09-.21-.2-.22-.12,0-.21.09-.22.2l-.35,12.92-4.74-6.17c-.06-.08-.17-.1-.25-.06-.09.04-.14.14-.12.23l2.78,13.87-8.71-6.13c-.1-.07-.23-.04-.29.05-.07.09-.04.23.05.29l8.32,5.86-11.29-2.25c-.09-.02-.17.02-.22.1-.05.07-.04.17.01.24l9.26,11.82-13.56-5.75c-.09-.04-.19-.01-.25.06-.06.07-.06.18,0,.25l10.91,14.69-14.57-1.19c-.12,0-.22.08-.23.19,0,.12.08.22.19.23l14.68,1.19-1.89,3.02-12.48-4.05c-.11-.03-.23.02-.26.13-.04.11.02.23.13.26l12.42,4.03-4.08,10.43c-.04.11.01.23.12.27.03,0,.05.01.08.01.08,0,.16-.05.2-.13l4.07-10.42,12.33,6.59s.07.02.1.02c.06,0,.13-.03.17-.09.06-.08.05-.2-.02-.27l-9.72-9.51,14.54,4.82s.04.01.07.01c.09,0,.17-.06.2-.14.04-.11-.02-.23-.13-.27l-14.62-4.85,18.48-3.4c.09-.02.16-.1.17-.19,0-.1-.05-.18-.14-.21ZM149.89,67.63l11.8,3.93-14.15,5.48,2.35-9.4ZM150,67.22l2.06-7.18,9.59,11.06-11.65-3.88ZM151.73,59.65l-1.95,6.82-2.54-12.66,4.49,5.84ZM149.48,67.52l-.06.23-2.29,9.16-9.15-11.68,11.49,2.29ZM146.98,77.49l-2.92,8.43-10.49-14.12,13.41,5.69ZM142.26,89.74l1.91-3.04,9.13,8.94-11.04-5.9ZM144.44,86.1l2.93-8.46,15.2,5.12-18.13,3.34Z"/>
              <path class="cls-3" d="M137.66,102.36c-.39,0-.77-.15-1.06-.42-4.63-4.39-10.05-11.4-9.58-19.86.26-4.66,2.29-8.12,9.66-18.45,4.71-6.6,9.65-13.23,14.69-19.7.33-.43.87-.64,1.4-.58.54.06,1,.41,1.22.9,2.31,5.17,4.36,10.55,6.07,15.98,4.47,14.11,6.71,21.19,4.03,27.65-4.75,11.48-21.32,13.98-26.29,14.48-.05,0-.1,0-.15,0ZM152.22,47.87c-4.46,5.78-8.84,11.68-13.02,17.54-7.36,10.32-8.89,13.15-9.1,16.83-.38,6.99,4.08,13.01,8.12,16.96,4.41-.52,19.1-2.96,23.04-12.51,2.24-5.43.12-12.15-4.12-25.54-1.42-4.5-3.07-8.96-4.92-13.29Z"/>
            </g>
          </g>
        </g>
      </g>
    </g>
  </g>
</svg>